<?xml version="1.0" encoding="UTF-8" standalone="no"?><!-- Generator: Gravit.io --><svg xmlns="http://www.w3.org/2000/svg" xmlns:xlink="http://www.w3.org/1999/xlink" style="isolation:isolate" viewBox="80 310.5 30 39.5" width="30pt" height="39.5pt"><g><path d=" M 84.286 327.5 C 82.523 327.5 81.071 328.952 81.071 330.714 L 81.071 337.98 C 80.418 338.57 80 339.415 80 340.357 L 80 350 L 85.357 350 L 85.357 347.857 L 104.643 347.857 L 104.643 350 L 110 350 L 110 340.357 C 110 339.415 109.582 338.57 108.929 337.98 L 108.929 330.714 C 108.929 328.952 107.477 327.5 105.714 327.5 L 84.286 327.5 Z  M 84.286 329.643 L 105.714 329.643 C 106.309 329.643 106.786 330.12 106.786 330.714 L 106.786 337.143 L 104.643 337.143 L 104.643 336.071 C 104.643 334.309 103.191 332.857 101.429 332.857 L 97.143 332.857 C 96.322 332.857 95.569 333.179 95 333.694 C 94.414 333.159 93.651 332.861 92.857 332.857 L 88.571 332.857 C 86.809 332.857 85.357 334.309 85.357 336.071 L 85.357 337.143 L 83.214 337.143 L 83.214 330.714 C 83.214 330.12 83.691 329.643 84.286 329.643 Z  M 88.571 335 L 92.857 335 C 93.452 335 93.929 335.477 93.929 336.071 L 93.929 337.143 L 87.5 337.143 L 87.5 336.071 C 87.5 335.477 87.977 335 88.571 335 Z  M 97.143 335 L 101.429 335 C 102.023 335 102.5 335.477 102.5 336.071 L 102.5 337.143 L 96.071 337.143 L 96.071 336.071 C 96.071 335.477 96.548 335 97.143 335 Z  M 83.214 339.286 L 106.786 339.286 C 107.38 339.286 107.857 339.762 107.857 340.357 L 107.857 347.857 L 106.786 347.857 L 106.786 345.714 L 83.214 345.714 L 83.214 347.857 L 82.143 347.857 L 82.143 340.357 C 82.143 339.762 82.62 339.286 83.214 339.286 Z " fill="rgb(255,255,255)"/></g></svg>