<?xml version="1.0" encoding="UTF-8" standalone="no"?><!-- Generator: Gravit.io --><svg xmlns="http://www.w3.org/2000/svg" xmlns:xlink="http://www.w3.org/1999/xlink" style="isolation:isolate" viewBox="171 258.75 98 122.5" width="98pt" height="122.5pt"><g><rect x="171" y="332.25" width="98" height="12.25" transform="matrix(1,0,0,1,0,0)" fill="rgb(0,0,0)"/><rect x="177.125" y="344.5" width="12.25" height="36.75" transform="matrix(1,0,0,1,0,0)" fill="rgb(0,0,0)"/><rect x="250.625" y="344.5" width="12.25" height="36.75" transform="matrix(1,0,0,1,0,0)" fill="rgb(0,0,0)"/><path d=" M 256.75 258.75 L 183.25 258.75 C 179.867 258.75 177.125 261.492 177.125 264.875 L 177.125 307.542 C 177.125 311.039 179.961 313.875 183.458 313.875 L 213.875 313.875 L 213.875 320 L 201.625 320 L 201.625 326.125 L 238.375 326.125 L 238.375 320 L 226.125 320 L 226.125 313.875 L 256.75 313.875 C 260.133 313.875 262.875 311.133 262.875 307.75 L 262.875 264.875 C 262.875 261.492 260.133 258.75 256.75 258.75 Z  M 250.625 301.625 L 189.375 301.625 L 189.375 271 L 250.625 271 L 250.625 301.625 Z " fill="rgb(0,0,0)"/></g></svg>