<?xml version="1.0" encoding="UTF-8" standalone="no"?><!-- Generator: Gravit.io --><svg xmlns="http://www.w3.org/2000/svg" xmlns:xlink="http://www.w3.org/1999/xlink" style="isolation:isolate" viewBox="258.7 533.667 13.6 22.667" width="13.6pt" height="22.667pt"><path d=" M 263.233 552.933 L 266.633 552.933 L 266.633 556.333 L 263.233 556.333 L 263.233 552.933 Z  M 265.5 533.667 C 263.149 533.667 258.7 535.088 258.7 540.467 L 262.1 540.467 C 262.1 537.313 264.703 537.067 265.5 537.067 C 266.297 537.067 268.9 537.313 268.9 540.467 C 268.9 541.514 268.179 542.211 266.901 543.353 C 265.352 544.734 263.233 546.629 263.233 550.1 L 263.233 551.233 L 266.633 551.233 L 266.633 550.1 C 266.633 548.245 267.597 547.291 269.166 545.887 C 270.563 544.639 272.3 543.085 272.3 540.467 C 272.3 535.088 267.851 533.667 265.5 533.667 Z " fill="rgb(255,255,255)"/></svg>