<?xml version="1.0" encoding="UTF-8" standalone="no"?><!-- Generator: Gravit.io --><svg xmlns="http://www.w3.org/2000/svg" xmlns:xlink="http://www.w3.org/1999/xlink" style="isolation:isolate" viewBox="162.812 536 24.376 20.99" width="24.376pt" height="20.99pt"><path d=" M 185.296 537.862 C 186.51 539.048 187.193 540.676 187.188 542.375 C 187.188 542.924 187.118 543.463 186.979 543.991 C 186.688 545.086 186.106 546.083 185.295 546.875 L 175 556.99 L 164.704 546.875 C 163.493 545.691 162.81 544.068 162.812 542.375 C 162.806 540.676 163.489 539.047 164.705 537.861 C 165.311 537.268 166.026 536.799 166.811 536.479 C 167.597 536.16 168.438 535.997 169.287 536 C 170.999 535.995 172.645 536.664 173.868 537.862 L 175 538.986 L 176.13 537.862 C 176.736 537.269 177.452 536.8 178.237 536.48 C 179.023 536.161 179.864 535.998 180.712 536.001 C 182.425 535.994 184.072 536.663 185.295 537.862 L 185.296 537.862 Z " fill="rgb(0,0,0)"/></svg>