<?xml version="1.0" encoding="UTF-8" standalone="no"?><!-- Generator: Gravit.io --><svg xmlns="http://www.w3.org/2000/svg" xmlns:xlink="http://www.w3.org/1999/xlink" style="isolation:isolate" viewBox="81 108 28.596 47" width="28.596pt" height="47pt"><g><path d=" M 109.263 128.177 C 109.227 128.118 109.191 128.064 109.15 128.005 C 109.108 127.951 109.066 127.898 109.019 127.844 C 108.923 127.743 108.822 127.648 108.715 127.57 C 108.685 127.553 108.662 127.529 108.632 127.511 C 108.547 127.452 108.457 127.401 108.364 127.356 C 108.084 127.219 107.769 127.142 107.436 127.142 L 105.294 127.142 L 105.294 125.714 C 105.294 125.321 104.973 125 104.58 125 C 104.187 125 103.866 125.321 103.866 125.714 L 103.866 127.142 L 99.582 127.142 L 99.582 125.714 C 99.582 125.321 99.261 125 98.868 125 C 98.475 125 98.154 125.321 98.154 125.714 L 98.154 127.142 L 92.442 127.142 L 92.442 125.714 C 92.442 125.321 92.121 125 91.728 125 C 91.335 125 91.014 125.321 91.014 125.714 L 91.014 127.142 L 86.73 127.142 L 86.73 125.714 C 86.73 125.321 86.409 125 86.016 125 C 85.623 125 85.302 125.321 85.302 125.714 L 85.302 127.142 L 83.16 127.142 C 82.827 127.142 82.511 127.219 82.232 127.356 C 82.138 127.401 82.049 127.452 81.964 127.511 C 81.934 127.529 81.91 127.553 81.881 127.57 C 81.774 127.654 81.666 127.743 81.577 127.844 C 81.53 127.898 81.488 127.945 81.446 128.005 C 81.405 128.058 81.369 128.118 81.333 128.177 C 81.131 128.513 81.024 128.898 81.024 129.29 L 81.024 133.931 L 109.596 133.931 L 109.596 134.645 L 81 134.645 L 81 150.716 C 81 151.108 81.107 151.493 81.309 151.829 C 81.345 151.888 81.381 151.942 81.422 152.001 C 81.464 152.055 81.506 152.108 81.553 152.162 C 81.577 152.186 81.601 152.209 81.625 152.239 C 81.696 152.311 81.774 152.382 81.857 152.441 C 81.887 152.459 81.91 152.483 81.94 152.501 C 82.025 152.56 82.115 152.611 82.208 152.656 C 82.488 152.793 82.803 152.87 83.136 152.87 L 107.424 152.87 C 107.757 152.87 108.073 152.793 108.352 152.656 C 108.445 152.611 108.535 152.56 108.62 152.501 C 108.65 152.483 108.674 152.459 108.703 152.441 C 108.814 152.36 108.916 152.266 109.007 152.162 C 109.054 152.108 109.096 152.061 109.138 152.001 C 109.179 151.948 109.215 151.888 109.251 151.829 C 109.452 151.492 109.559 151.108 109.56 150.716 L 109.56 129.29 C 109.56 129.028 109.512 128.784 109.429 128.552 C 109.393 128.421 109.334 128.296 109.263 128.177 L 109.263 128.177 Z  M 86.718 132.146 C 85.927 132.146 85.29 131.509 85.29 130.718 C 85.29 129.927 85.927 129.29 86.718 129.29 C 87.509 129.29 88.146 129.927 88.146 130.718 C 88.146 131.503 87.503 132.146 86.718 132.146 Z  M 91.716 132.146 C 90.925 132.146 90.288 131.509 90.288 130.718 C 90.288 129.927 90.925 129.29 91.716 129.29 C 92.507 129.29 93.144 129.927 93.144 130.718 C 93.144 131.507 92.505 132.146 91.716 132.146 Z  M 98.862 132.146 C 98.071 132.146 97.434 131.509 97.434 130.718 C 97.434 129.927 98.071 129.29 98.862 129.29 C 99.653 129.29 100.29 129.927 100.29 130.718 C 100.29 131.503 99.647 132.146 98.862 132.146 Z  M 103.86 132.146 C 103.069 132.146 102.432 131.509 102.432 130.718 C 102.432 129.927 103.069 129.29 103.86 129.29 C 104.651 129.29 105.288 129.927 105.288 130.718 C 105.288 131.507 104.649 132.146 103.86 132.146 Z  M 105.645 150.002 C 105.645 150.198 105.484 150.359 105.288 150.359 L 85.29 150.359 C 85.094 150.359 84.933 150.198 84.933 150.002 L 84.933 140 C 84.933 139.804 85.094 139.643 85.29 139.643 L 105.288 139.643 C 105.484 139.643 105.645 139.804 105.645 140 L 105.645 150.002 Z  M 105.288 137.501 L 85.29 137.501 C 85.094 137.501 84.933 137.34 84.933 137.144 C 84.933 136.948 85.094 136.787 85.29 136.787 L 105.288 136.787 C 105.484 136.787 105.645 136.948 105.645 137.144 C 105.645 137.34 105.484 137.501 105.288 137.501 Z  M 84.576 153.572 L 86.004 153.572 L 86.004 155 L 84.576 155 L 84.576 153.572 Z  M 104.574 153.572 L 106.002 153.572 L 106.002 155 L 104.574 155 L 104.574 153.572 Z " fill="rgb(255,255,255)"/></g></svg>