<?xml version="1.0" encoding="UTF-8" standalone="no"?><!-- Generator: Gravit.io --><svg xmlns="http://www.w3.org/2000/svg" xmlns:xlink="http://www.w3.org/1999/xlink" style="isolation:isolate" viewBox="79 210.927 32.68 40.882" width="32.68pt" height="40.882pt"><g><path d=" M 89.056 227.927 C 85.314 227.927 82.771 230.426 82.771 234.212 C 85.668 234.212 87.799 234.964 87.799 239.24 C 87.799 240.434 88.295 241.754 90.312 241.754 L 100.368 241.754 C 102.385 241.754 102.882 240.434 102.882 239.24 C 102.882 234.964 105.239 234.212 107.91 234.212 C 107.91 230.426 105.367 227.927 101.625 227.927 L 89.056 227.927 Z  M 82.771 235.469 C 80.688 235.469 79 237.157 79 239.24 C 79 241.322 80.688 243.011 82.771 243.011 L 82.771 246.781 C 82.771 248.415 83.827 249.795 85.285 250.317 L 85.285 251.809 L 89.056 251.809 L 89.056 250.552 L 101.625 250.552 L 101.625 251.809 L 105.396 251.809 L 105.396 250.316 C 106.854 249.795 107.91 248.417 107.91 246.781 L 107.91 243.011 C 109.992 243.011 111.68 241.322 111.68 239.24 C 111.68 237.157 109.992 235.469 107.91 235.469 C 105.827 235.469 104.139 237.157 104.139 239.24 C 104.139 239.24 104.144 243.011 101.625 243.011 L 89.056 243.011 C 86.547 243.011 86.542 239.24 86.542 239.24 C 86.542 237.157 84.853 235.469 82.771 235.469 Z " fill="rgb(255,255,255)"/></g></svg>