<?xml version="1.0" encoding="UTF-8" standalone="no"?><!-- Generator: Gravit.io --><svg xmlns="http://www.w3.org/2000/svg" xmlns:xlink="http://www.w3.org/1999/xlink" style="isolation:isolate" viewBox="60 52 21.583 25.9" width="21.583pt" height="25.9pt"><path d=" M 70.792 52 C 67.934 52 65.374 52.583 63.474 53.382 C 62.524 53.783 61.754 54.218 61.147 54.731 C 60.54 55.246 60 55.857 60 56.755 C 60 59.55 61.548 61.67 62.934 63.331 C 63.629 64.162 64.305 64.899 64.755 65.523 C 65.206 66.147 65.396 66.64 65.396 66.906 L 65.396 70.346 C 65.396 71.133 65.83 71.825 66.475 72.201 L 66.475 74.662 C 66.475 75.843 67.453 76.82 68.633 76.82 L 69.712 77.9 L 71.871 77.9 L 72.95 76.82 C 74.13 76.82 75.108 75.843 75.108 74.662 L 75.108 72.201 C 75.753 71.825 76.187 71.133 76.187 70.346 L 76.187 66.905 C 76.187 66.64 76.377 66.147 76.828 65.524 C 77.279 64.899 77.954 64.162 78.649 63.331 C 80.036 61.669 81.583 59.55 81.583 56.755 C 81.583 55.857 81.043 55.246 80.436 54.731 C 79.829 54.218 79.058 53.783 78.109 53.382 C 76.209 52.583 73.649 52 70.792 52 Z  M 70.792 54.158 C 73.35 54.158 75.665 54.698 77.266 55.372 C 78.067 55.71 78.687 56.072 79.053 56.385 C 79.328 56.616 79.407 56.818 79.425 56.823 C 79.4 58.774 78.257 60.397 76.963 61.949 C 76.309 62.732 75.636 63.499 75.075 64.275 C 74.513 65.051 74.029 65.885 74.029 66.906 L 74.029 70.346 L 67.554 70.346 L 67.554 66.905 C 67.554 65.885 67.068 65.051 66.508 64.275 C 65.947 63.499 65.274 62.732 64.62 61.949 C 63.326 60.396 62.183 58.774 62.158 56.823 C 62.176 56.818 62.255 56.616 62.53 56.385 C 62.896 56.072 63.516 55.709 64.317 55.372 C 65.918 54.698 68.233 54.158 70.792 54.158 Z  M 68.633 72.504 L 72.95 72.504 L 72.95 74.662 L 68.633 74.662 L 68.633 72.504 Z " fill="rgb(255,255,255)"/></svg>