<?xml version="1.0" encoding="UTF-8" standalone="no"?><!-- Generator: Gravit.io --><svg xmlns="http://www.w3.org/2000/svg" xmlns:xlink="http://www.w3.org/1999/xlink" style="isolation:isolate" viewBox="325 50 19 19" width="19pt" height="19pt"><path d=" M 334.5 50 C 330.134 50 326.488 52.502 325 56.036 L 326.575 56.63 C 327.819 53.674 330.837 51.583 334.5 51.583 C 337.268 51.583 339.737 52.842 341.279 54.75 L 337.916 54.75 L 337.916 56.333 L 343.893 56.333 L 343.893 50.792 L 342.185 50.792 L 342.185 53.241 C 340.249 51.182 337.447 50 334.5 50 Z  M 342.425 62.37 C 341.181 65.326 338.163 67.417 334.5 67.417 C 331.702 67.417 329.243 66.14 327.695 64.25 L 331.084 64.25 L 331.084 62.667 L 325.107 62.667 L 325.107 68.208 L 326.815 68.208 L 326.815 65.759 C 328.683 67.722 331.422 69 334.5 69 C 338.866 69 342.512 66.498 344 62.964 L 342.425 62.37 Z " fill="rgb(255,255,255)"/></svg>