<?xml version="1.0" encoding="UTF-8" standalone="no"?><!-- Generator: Gravit.io --><svg xmlns="http://www.w3.org/2000/svg" xmlns:xlink="http://www.w3.org/1999/xlink" style="isolation:isolate" viewBox="82 123.75 25 30" width="25pt" height="30pt"><g style="isolation:isolate"><path d=" M 94.5 123.75 C 91.19 123.75 88.225 124.425 86.024 125.351 C 84.924 125.815 84.031 126.319 83.329 126.914 C 82.625 127.51 82 128.217 82 129.257 C 82 132.495 83.793 134.951 85.399 136.875 C 86.204 137.837 86.986 138.691 87.508 139.414 C 88.03 140.136 88.25 140.707 88.25 141.016 L 88.25 145 C 88.25 145.912 88.753 146.714 89.5 147.149 L 89.5 150 C 89.5 151.367 90.633 152.5 92 152.5 L 93.25 153.75 L 95.75 153.75 L 97 152.5 C 98.367 152.5 99.5 151.367 99.5 150 L 99.5 147.149 C 100.247 146.714 100.75 145.912 100.75 145 L 100.75 141.015 C 100.75 140.707 100.97 140.136 101.492 139.415 C 102.015 138.691 102.796 137.837 103.601 136.875 C 105.207 134.95 107 132.495 107 129.257 C 107 128.217 106.375 127.51 105.671 126.914 C 104.969 126.319 104.075 125.815 102.976 125.351 C 100.775 124.425 97.81 123.75 94.5 123.75 Z  M 94.5 126.25 C 97.464 126.25 100.145 126.875 102 127.656 C 102.928 128.047 103.645 128.466 104.07 128.829 C 104.387 129.096 104.48 129.331 104.5 129.336 C 104.471 131.596 103.147 133.476 101.649 135.274 C 100.891 136.181 100.111 137.07 99.461 137.969 C 98.811 138.867 98.25 139.834 98.25 141.016 L 98.25 145 L 90.75 145 L 90.75 141.015 C 90.75 139.834 90.188 138.867 89.539 137.969 C 88.889 137.07 88.109 136.181 87.351 135.274 C 85.852 133.475 84.529 131.596 84.5 129.336 C 84.52 129.331 84.613 129.096 84.93 128.829 C 85.355 128.466 86.073 128.046 87 127.656 C 88.855 126.875 91.536 126.25 94.5 126.25 Z  M 92 147.5 L 97 147.5 L 97 150 L 92 150 L 92 147.5 Z " fill="rgb(255,255,255)"/><path d=" M 93.6 140.05 L 95.55 140.05 L 95.55 142 L 93.6 142 L 93.6 140.05 Z  M 94.9 129 C 93.552 129 91 129.815 91 132.9 L 92.95 132.9 C 92.95 131.091 94.443 130.95 94.9 130.95 C 95.357 130.95 96.85 131.091 96.85 132.9 C 96.85 133.501 96.436 133.9 95.704 134.556 C 94.815 135.347 93.6 136.434 93.6 138.425 L 93.6 139.075 L 95.55 139.075 L 95.55 138.425 C 95.55 137.361 96.103 136.814 97.002 136.009 C 97.804 135.293 98.8 134.402 98.8 132.9 C 98.8 129.815 96.248 129 94.9 129 Z " fill="rgb(255,255,255)"/></g></svg>